<?xml version="1.0" encoding="utf-8"?>
<!-- Generator: Adobe Illustrator 16.0.0, SVG Export Plug-In . SVG Version: 6.00 Build 0)  -->
<!DOCTYPE svg PUBLIC "-//W3C//DTD SVG 1.1//EN" "http://www.w3.org/Graphics/SVG/1.1/DTD/svg11.dtd">
<svg version="1.1" id="Layer_1" xmlns="http://www.w3.org/2000/svg" xmlns:xlink="http://www.w3.org/1999/xlink" x="0px" y="0px"
	 width="212.715px" height="32.745px" viewBox="7.689 2.846 212.715 32.745" enable-background="new 7.689 2.846 212.715 32.745"
	 xml:space="preserve">
<text transform="matrix(0.9901 0 0 1 7.6887 27.8315)" fill="#FFFFFF" font-family="'Opificio'" font-size="29.3945" letter-spacing="2.02">c</text>
<text transform="matrix(0.9901 0 0 1 28.2639 27.8315)" fill="#FFFFFF" font-family="'Opificio'" font-size="29.3945" letter-spacing="3.03">h</text>
<text transform="matrix(0.9901 0 0 1 48.0256 27.8315)" fill="#FFFFFF" font-family="'Opificio'" font-size="29.3945" letter-spacing="2.02">r</text>
<text transform="matrix(0.9901 0 0 1 61.8489 27.8315)" fill="#FFFFFF" font-family="'Opificio'" font-size="29.3945" letter-spacing="3.03">i</text>
<text transform="matrix(0.9901 0 0 1 70.1145 27.8315)" fill="#FFFFFF" font-family="'Opificio'" font-size="29.3945" letter-spacing="3.03">s</text>
<text transform="matrix(0.9901 0 0 1 86.5286 27.8315)" fill="#FFFFFF" font-family="'Opificio'" font-size="29.3945" letter-spacing="3.03">t</text>
<text transform="matrix(0.9901 0 0 1 99.595 27.8315)" fill="#FFFFFF" font-family="'Opificio'" font-size="29.3945" letter-spacing="3.03">i</text>
<text transform="matrix(0.9901 0 0 1 107.8606 27.8315)" fill="#FFFFFF" font-family="'Opificio'" font-size="29.3945" letter-spacing="3.03">n</text>
<text transform="matrix(0.9901 0 0 1 127.4182 27.8315)" fill="#FFFFFF" font-family="'Opificio'" font-size="29.3945">e</text>
<text transform="matrix(0.9901 0 0 1 149.2766 27.8315)" fill="#FFFFFF" font-family="'Opificio'" font-size="29.3945" letter-spacing="3.03"> </text>
<text transform="matrix(0.9901 0 0 1 163.3918 27.8315)" fill="#FFFFFF" font-family="'Opificio'" font-size="29.3945" letter-spacing="3.03">l</text>
<text transform="matrix(0.9901 0 0 1 172.0354 27.8315)" fill="#FFFFFF" font-family="'Opificio'" font-size="29.3945" letter-spacing="3.03">ia</text>
<text transform="matrix(0.9901 0 0 1 202.4182 27.8315)" fill="#FFFFFF" font-family="'Opificio'" font-size="29.3945">o</text>
</svg>
