<?xml version="1.0" encoding="utf-8"?>
<!-- Generator: Adobe Illustrator 16.2.0, SVG Export Plug-In . SVG Version: 6.00 Build 0)  -->
<!DOCTYPE svg PUBLIC "-//W3C//DTD SVG 1.1//EN" "http://www.w3.org/Graphics/SVG/1.1/DTD/svg11.dtd">
<svg version="1.1" id="Layer_1" xmlns="http://www.w3.org/2000/svg" xmlns:xlink="http://www.w3.org/1999/xlink" x="0px" y="0px"
	 width="1000px" height="1000px" viewBox="0 0 1000 1000" enable-background="new 0 0 1000 1000" xml:space="preserve">
<g>
	<path d="M615.215,462.738c-59.031,0-99.949,46.691-99.949,103.773v0.966c0,57.105,41.929,104.67,100.915,104.67
		c58.985,0,99.903-46.622,99.903-103.728v-0.942C716.084,510.372,674.247,462.738,615.215,462.738z"/>
	<path d="M499.818,0.113C223.738,0.113-0.159,223.96-0.159,500.118c0,276.125,223.897,499.995,499.978,499.995
		c276.125,0,500.022-223.87,500.022-499.995C999.841,223.96,775.943,0.113,499.818,0.113z M792.678,567.478
		c0,94.738-74.663,172.305-177.463,172.305c-92.729,0-161.806-62.349-174.453-144.098c-18.044,6.069-38.622,9.357-62.961,9.357
		c-98.019,0-170.889-75.681-170.889-171.282v-0.942c0-94.75,71.398-172.293,173.739-172.293c62.802,0,100.409,20.92,131.35,51.323
		L465.383,365.7c-25.7-23.369-51.906-37.61-85.237-37.61c-56.136,0-96.64,46.622-96.64,103.728v1
		c0,57.094,39.585,104.659,96.64,104.659c27.592,0,47.424-7.981,66.215-21.431c21.553-69.832,86.475-120.873,169.82-120.873
		c102.754,0,176.497,76.623,176.497,171.339V567.478z"/>
</g>
<g>
</g>
<g>
</g>
<g>
</g>
<g>
</g>
<g>
</g>
<g>
</g>
</svg>
